<mxfile host="app.diagrams.net" modified="2023-05-20T05:16:07.303Z" agent="Mozilla/5.0 (Windows NT 10.0; Win64; x64) AppleWebKit/537.36 (KHTML, like Gecko) Chrome/113.0.0.0 Safari/537.36" etag="jYoZerJ0hiC_4ygphbVG" version="21.3.2" type="github">
  <diagram name="Page-1" id="1HfOU6_t4pue3S6UpMC1">
    <mxGraphModel dx="794" dy="708" grid="1" gridSize="10" guides="1" tooltips="1" connect="1" arrows="1" fold="1" page="1" pageScale="1" pageWidth="850" pageHeight="1100" math="0" shadow="0">
      <root>
        <mxCell id="0" />
        <mxCell id="1" parent="0" />
        <mxCell id="5SHyYvuHXXvlAQDOQIJn-2" value="Actor" style="shape=umlActor;verticalLabelPosition=bottom;verticalAlign=top;html=1;outlineConnect=0;" vertex="1" parent="1">
          <mxGeometry x="70" y="340" width="30" height="60" as="geometry" />
        </mxCell>
        <mxCell id="5SHyYvuHXXvlAQDOQIJn-5" value="" style="line;strokeWidth=2;direction=south;html=1;" vertex="1" parent="1">
          <mxGeometry x="80" y="210" width="10" height="100" as="geometry" />
        </mxCell>
        <mxCell id="5SHyYvuHXXvlAQDOQIJn-6" value="" style="shape=ext;double=1;rounded=1;whiteSpace=wrap;html=1;" vertex="1" parent="1">
          <mxGeometry x="30" y="140" width="120" height="60" as="geometry" />
        </mxCell>
        <mxCell id="5SHyYvuHXXvlAQDOQIJn-9" value="" style="line;strokeWidth=2;html=1;opacity=70;" vertex="1" parent="1">
          <mxGeometry x="160" y="165" width="70" height="10" as="geometry" />
        </mxCell>
      </root>
    </mxGraphModel>
  </diagram>
</mxfile>
